<svg width="679" height="777" viewBox="0 0 679 777" fill="none" xmlns="http://www.w3.org/2000/svg">
<path d="M381.034 749.247V731.309V682.747V610.705V523.132V427.173V329.976V239.632V162.996V108.089C381.034 99.4121 381.107 90.7345 381.034 82.0585V80.8919C381.034 69.444 370.971 58.5065 359.159 59.0172C347.274 59.5276 337.284 68.6423 337.284 80.8919V98.8292V147.392V219.433V307.007V402.965V500.163V590.507V667.143V722.049C337.284 730.726 337.212 739.404 337.284 748.08V749.247C337.284 760.694 347.347 771.632 359.159 771.121C371.045 770.538 381.034 761.496 381.034 749.247Z" fill="#EBDF77"/>
<path d="M450.087 117.865C438.056 129.896 426.098 141.855 414.066 153.887C394.962 172.991 375.858 192.095 356.754 211.199L343.629 224.324H374.546C362.515 212.292 350.557 200.334 338.525 188.302C319.421 169.198 300.317 150.094 281.213 130.99L268.088 117.865C259.994 109.771 245.118 109.188 237.17 117.865C229.15 126.615 228.493 140.177 237.17 148.783C249.202 160.814 261.16 172.772 273.192 184.804C292.296 203.908 311.4 223.012 330.504 242.116L343.629 255.241C352.014 263.626 366.159 263.626 374.546 255.241C386.577 243.21 398.535 231.252 410.567 219.22C429.671 200.116 448.775 181.012 467.879 161.908L481.004 148.783C489.098 140.689 489.682 125.813 481.004 117.865C472.327 109.844 458.764 109.188 450.087 117.865V117.865Z" fill="#EBDF77"/>
<path d="M481.074 681.367L374.615 574.908C366.23 566.522 352.084 566.522 343.698 574.908L237.239 681.367C229.145 689.46 228.562 704.336 237.239 712.284C245.989 720.305 259.551 720.961 268.156 712.284L374.615 605.825H343.698L450.156 712.284C458.25 720.378 473.126 720.961 481.074 712.284C489.095 703.534 489.678 689.972 481.074 681.367Z" fill="#EBDF77"/>
<path d="M659.567 563.233C654.39 560.244 649.213 557.254 644.036 554.264C630.036 546.171 615.963 538.076 601.963 529.983C581.182 517.952 560.327 505.994 539.547 493.962C514.244 479.378 488.943 464.795 463.714 450.139C436.006 434.17 408.298 418.128 380.662 402.16C352.588 385.972 324.516 369.786 296.443 353.524C270.339 338.503 244.307 323.41 218.203 308.388C196.11 295.628 173.943 282.867 151.848 270.107C136.026 260.993 120.203 251.804 104.307 242.691C96.7967 238.316 89.2858 233.941 81.7765 229.639C81.4119 229.42 81.1202 229.274 80.8285 229.056C70.9119 223.295 56.4019 226.431 50.9325 236.931C45.3909 247.358 48.1617 260.775 58.8075 266.827C63.9845 269.816 69.1616 272.806 74.3381 275.795C88.3381 283.889 102.411 291.983 116.411 300.077C137.193 312.108 158.047 324.066 178.827 336.098C204.13 350.682 229.431 365.265 254.661 379.921C282.369 395.89 310.077 411.931 337.713 427.899C365.786 444.087 393.858 460.274 421.931 476.535C448.035 491.557 474.068 506.65 500.172 521.671C522.265 534.432 544.431 547.193 566.526 559.953C582.349 569.067 598.171 578.255 614.067 587.369C621.578 591.744 629.089 596.119 636.598 600.421C636.963 600.64 637.254 600.785 637.546 601.004C647.463 606.765 661.973 603.629 667.442 593.129C672.911 582.775 670.14 569.359 659.567 563.233V563.233Z" fill="#EBDF77"/>
<path d="M147.26 187.86C151.635 204.267 156.01 220.6 160.458 237.005L181.458 315.317C183.062 321.296 184.667 327.276 186.271 333.255C191.375 324.286 196.479 315.317 201.583 306.348C185.176 310.723 168.843 315.098 152.438 319.546C126.334 326.546 100.23 333.546 74.1255 340.546C68.1463 342.15 62.1671 343.754 56.1882 345.358C45.1049 348.348 37.3029 361.108 40.8762 372.265C44.5221 383.64 55.9695 390.713 67.7829 387.577C84.1895 383.202 100.523 378.827 116.928 374.379C143.032 367.379 169.136 360.379 195.24 353.379L213.178 348.567C224.625 345.504 231.48 333.036 228.49 321.66C224.115 305.253 219.74 288.92 215.292 272.515C208.292 246.411 201.292 220.307 194.292 194.203C192.688 188.223 191.083 182.244 189.479 176.265C186.49 165.182 173.73 157.38 162.572 160.953C151.198 164.599 144.124 175.975 147.26 187.86Z" fill="#EBDF77"/>
<path d="M650.527 442.713C634.121 447.088 617.787 451.463 601.382 455.911C575.278 462.911 549.174 469.911 523.07 476.911L505.132 481.724C493.685 484.786 486.83 497.254 489.82 508.63C494.195 525.037 498.57 541.37 503.018 557.776C510.018 583.88 517.018 609.984 524.018 636.088C525.622 642.067 527.227 648.046 528.831 654.025C531.82 665.108 544.58 672.91 555.738 669.337C567.112 665.691 574.186 654.244 571.05 642.43C566.675 626.024 562.3 609.69 557.852 593.285L536.852 514.973C535.248 508.994 533.643 503.015 532.039 497.036C526.935 506.004 521.831 514.973 516.727 523.942C533.134 519.567 549.467 515.192 565.872 510.744C591.976 503.744 618.08 496.744 644.184 489.744C650.164 488.14 656.143 486.536 662.122 484.932C673.205 481.942 681.007 469.183 677.434 458.025C673.788 446.65 662.413 439.504 650.527 442.713V442.713Z" fill="#EBDF77"/>
<path d="M88.8806 600.591C94.0577 597.602 99.2348 594.612 104.411 591.623C118.411 583.529 132.485 575.435 146.485 567.341C167.266 555.31 188.121 543.352 208.901 531.32C234.203 516.736 259.505 502.153 284.734 487.497C312.442 471.528 340.15 455.487 367.786 439.519C395.859 423.331 423.931 407.144 452.005 390.883C478.109 375.861 504.141 360.768 530.245 345.747C552.338 332.986 574.505 320.225 596.599 307.465C612.422 298.351 628.245 289.163 644.141 280.049C651.651 275.674 659.234 271.445 666.671 266.997C666.963 266.778 667.328 266.633 667.619 266.414C677.536 260.726 681.838 246.362 675.494 236.518C669.078 226.528 656.172 222.518 645.598 228.643C640.421 231.632 635.244 234.622 630.068 237.612C616.068 245.705 601.994 253.8 587.994 261.893C567.213 273.924 546.358 285.882 525.578 297.914C500.276 312.498 474.974 327.081 449.745 341.737C422.037 357.706 394.329 373.748 366.693 389.716C338.62 405.904 310.548 422.09 282.474 438.352C256.37 453.373 230.338 468.466 204.234 483.488C182.141 496.248 159.974 509.009 137.88 521.769C122.057 530.884 106.234 540.072 90.3382 549.185C82.8278 553.56 75.2448 557.789 67.8075 562.237C67.5158 562.456 67.1513 562.602 66.8596 562.82C56.9429 568.508 52.6409 582.872 58.9846 592.716C65.4013 602.779 78.2353 606.716 88.8806 600.591Z" fill="#EBDF77"/>
<path d="M528.834 176.193C524.459 192.6 520.084 208.933 515.636 225.339L494.636 303.651C493.032 309.63 491.428 315.609 489.823 321.588C486.761 332.963 493.615 345.432 505.135 348.495C521.542 352.869 537.875 357.245 554.281 361.692C580.385 368.692 606.489 375.692 632.593 382.692L650.53 387.505C661.541 390.495 674.811 383.786 677.437 372.193C680.062 360.672 674.01 348.422 662.125 345.286C645.718 340.911 629.385 336.536 612.979 332.088C586.875 325.088 560.771 318.088 534.667 311.088C528.688 309.484 522.709 307.88 516.73 306.276C521.834 315.245 526.938 324.213 532.042 333.183C536.417 316.776 540.792 300.443 545.24 284.037C552.24 257.933 559.24 231.829 566.24 205.725C567.844 199.746 569.448 193.767 571.052 187.788C574.042 176.777 567.334 163.507 555.74 160.881C544.22 158.329 532.043 164.381 528.834 176.193V176.193Z" fill="#EBDF77"/>
<path d="M56.1138 484.86C72.5204 489.235 88.8538 493.61 105.259 498.058C131.363 505.058 157.467 512.058 183.571 519.058L201.508 523.87C196.404 514.902 191.3 505.933 186.196 496.964C181.822 513.37 177.446 529.704 172.999 546.109C165.999 572.213 158.999 598.317 151.999 624.421C150.394 630.4 148.79 636.379 147.186 642.358C144.196 653.369 150.905 666.64 162.498 669.265C174.019 671.89 186.269 665.838 189.405 653.953C193.78 637.546 198.155 621.213 202.603 604.808L223.603 526.496C225.207 520.516 226.811 514.537 228.415 508.558C231.478 497.183 224.623 484.714 213.103 481.652C196.696 477.277 180.363 472.902 163.958 468.454C137.854 461.454 111.75 454.454 85.6458 447.454C79.6666 445.85 73.6874 444.245 67.7084 442.641C56.698 439.652 43.4271 446.36 40.8018 457.953C38.2496 469.474 44.3018 481.724 56.1138 484.86V484.86Z" fill="#EBDF77"/>
<path d="M357.034 722.507V704.569V656.007V583.965V496.392V400.433V303.236V212.892V136.256V81.3493C357.034 72.6723 357.107 63.9947 357.034 55.3187V54.152C357.034 42.7041 346.971 31.7667 335.159 32.2773C323.274 32.7878 313.284 41.9024 313.284 54.152V72.0893V120.652V192.693V280.267V376.225V473.423V563.767V640.403V695.309C313.284 703.986 313.212 712.664 313.284 721.34V722.507C313.284 733.955 323.347 744.892 335.159 744.381C347.045 743.798 357.034 734.756 357.034 722.507Z" fill="white"/>
<path d="M426.087 91.1254C414.056 103.157 402.098 115.115 390.066 127.147C370.962 146.251 351.858 165.355 332.754 184.459L319.629 197.584H350.546C338.515 185.553 326.557 173.594 314.525 161.562C295.421 142.458 276.317 123.354 257.213 104.25L244.088 91.1254C235.994 83.0316 221.118 82.4483 213.17 91.1254C205.15 99.8754 204.493 113.437 213.17 122.043C225.202 134.074 237.16 146.032 249.192 158.064C268.296 177.168 287.4 196.272 306.504 215.376L319.629 228.501C328.014 236.887 342.159 236.887 350.546 228.501C362.577 216.47 374.535 204.512 386.567 192.48C405.671 173.376 424.775 154.272 443.879 135.168L457.004 122.043C465.098 113.949 465.682 99.0734 457.004 91.1254C448.327 83.1046 434.764 82.4483 426.087 91.1254V91.1254Z" fill="white"/>
<path d="M457.074 654.627L350.615 548.168C342.23 539.783 328.084 539.783 319.698 548.168L213.239 654.627C205.145 662.72 204.562 677.596 213.239 685.544C221.989 693.565 235.551 694.221 244.156 685.544L350.615 579.085H319.698L426.156 685.544C434.25 693.638 449.126 694.221 457.074 685.544C465.095 676.794 465.678 663.232 457.074 654.627Z" fill="white"/>
<path d="M635.567 536.493C630.39 533.504 625.213 530.514 620.036 527.525C606.036 519.431 591.963 511.337 577.963 503.243C557.182 491.212 536.327 479.254 515.547 467.222C490.244 452.638 464.943 438.055 439.714 423.399C412.006 407.43 384.298 391.389 356.662 375.421C328.588 359.233 300.516 343.046 272.443 326.785C246.339 311.763 220.307 296.67 194.203 281.649C172.11 268.888 149.943 256.127 127.848 243.367C112.026 234.253 96.2031 225.065 80.3071 215.951C72.7967 211.576 65.2858 207.201 57.7765 202.899C57.4119 202.68 57.1202 202.534 56.8285 202.316C46.9119 196.555 32.4019 199.691 26.9325 210.191C21.3909 220.618 24.1617 234.035 34.8075 240.087C39.9845 243.076 45.1616 246.066 50.3381 249.055C64.3381 257.149 78.4115 265.243 92.4115 273.337C113.193 285.368 134.047 297.326 154.827 309.358C180.13 323.942 205.431 338.525 230.661 353.181C258.369 369.15 286.077 385.191 313.713 401.159C341.786 417.347 369.858 433.534 397.931 449.795C424.035 464.817 450.068 479.91 476.172 494.931C498.265 507.692 520.431 520.453 542.526 533.213C558.349 542.327 574.171 551.515 590.067 560.629C597.578 565.004 605.089 569.379 612.598 573.681C612.963 573.9 613.254 574.046 613.546 574.264C623.463 580.025 637.973 576.889 643.442 566.389C648.911 556.035 646.14 542.619 635.567 536.493Z" fill="white"/>
<path d="M123.26 161.12C127.635 177.527 132.01 193.86 136.458 210.265L157.458 288.577C159.062 294.557 160.667 300.536 162.271 306.515C167.375 297.546 172.479 288.577 177.583 279.608C161.176 283.983 144.843 288.358 128.438 292.806C102.334 299.806 76.2295 306.806 50.1255 313.806C44.1463 315.41 38.1671 317.014 32.1882 318.618C21.1049 321.608 13.3029 334.368 16.8762 345.525C20.5221 356.9 31.9695 363.973 43.7829 360.837C60.1895 356.462 76.5229 352.087 92.9282 347.639C119.032 340.639 145.136 333.639 171.24 326.639L189.178 321.827C200.625 318.764 207.48 306.296 204.49 294.92C200.115 278.513 195.74 262.18 191.292 245.775C184.292 219.671 177.292 193.567 170.292 167.463C168.688 161.483 167.083 155.504 165.479 149.525C162.49 138.442 149.73 130.64 138.572 134.213C127.198 137.859 120.124 149.235 123.26 161.12Z" fill="white"/>
<path d="M626.527 415.973C610.121 420.348 593.787 424.723 577.382 429.171C551.278 436.171 525.174 443.171 499.07 450.171L481.132 454.984C469.685 458.046 462.83 470.514 465.82 481.89C470.195 498.297 474.57 514.63 479.018 531.036C486.018 557.14 493.018 583.244 500.018 609.348C501.622 615.327 503.227 621.306 504.831 627.285C507.82 638.368 520.58 646.17 531.738 642.597C543.112 638.951 550.186 627.504 547.05 615.69C542.675 599.284 538.3 582.95 533.852 566.545L512.852 488.233C511.248 482.254 509.643 476.275 508.039 470.296C502.935 479.265 497.831 488.233 492.727 497.202C509.134 492.828 525.467 488.452 541.872 484.005C567.976 477.005 594.08 470.005 620.184 463.005C626.164 461.4 632.143 459.796 638.122 458.192C649.205 455.202 657.007 442.443 653.434 431.285C649.788 419.91 638.413 412.764 626.527 415.973V415.973Z" fill="white"/>
<path d="M64.8806 573.852C70.0577 570.862 75.2348 567.872 80.4113 564.883C94.4113 556.789 108.485 548.695 122.485 540.601C143.266 528.57 164.121 516.612 184.901 504.58C210.203 489.996 235.505 475.413 260.734 460.757C288.442 444.788 316.15 428.747 343.786 412.779C371.859 396.591 399.931 380.404 428.005 364.143C454.109 349.121 480.141 334.028 506.245 319.007C528.338 306.246 550.505 293.485 572.599 280.725C588.422 271.611 604.245 262.423 620.141 253.309C627.651 248.934 635.234 244.705 642.671 240.257C642.963 240.039 643.328 239.893 643.619 239.674C653.536 233.986 657.838 219.622 651.494 209.778C645.078 199.788 632.172 195.778 621.598 201.903C616.421 204.893 611.244 207.882 606.068 210.872C592.068 218.966 577.994 227.06 563.994 235.153C543.213 247.184 522.358 259.142 501.578 271.174C476.276 285.758 450.974 300.341 425.745 314.997C398.037 330.966 370.329 347.008 342.693 362.976C314.62 379.164 286.548 395.35 258.474 411.612C232.37 426.633 206.338 441.726 180.234 456.748C158.141 469.508 135.974 482.269 113.88 495.029C98.0568 504.144 82.2342 513.332 66.3382 522.445C58.8278 526.82 51.2448 531.049 43.8075 535.497C43.5158 535.716 43.1513 535.862 42.8596 536.081C32.9429 541.768 28.6409 556.133 34.9846 565.977C41.4013 576.039 54.2353 579.977 64.8806 573.852Z" fill="white"/>
<path d="M504.834 149.453C500.459 165.86 496.084 182.193 491.636 198.599L470.636 276.911C469.032 282.89 467.428 288.869 465.823 294.848C462.761 306.223 469.615 318.692 481.135 321.755C497.542 326.13 513.875 330.505 530.281 334.953C556.385 341.953 582.489 348.953 608.593 355.953L626.53 360.765C637.541 363.755 650.811 357.046 653.437 345.453C656.062 333.932 650.01 321.682 638.125 318.546C621.718 314.171 605.385 309.796 588.979 305.349C562.875 298.349 536.771 291.349 510.667 284.349C504.688 282.744 498.709 281.14 492.73 279.536C497.834 288.505 502.938 297.473 508.042 306.443C512.417 290.036 516.792 273.703 521.24 257.297C528.24 231.193 535.24 205.089 542.24 178.985C543.844 173.006 545.448 167.027 547.052 161.048C550.042 150.038 543.334 136.767 531.74 134.141C520.22 131.589 508.043 137.641 504.834 149.453V149.453Z" fill="white"/>
<path d="M32.1138 458.12C48.5204 462.495 64.8538 466.87 81.2591 471.318C107.363 478.318 133.467 485.318 159.571 492.318L177.508 497.13C172.404 488.162 167.3 479.193 162.196 470.224C157.822 486.63 153.446 502.964 148.999 519.369C141.999 545.473 134.999 571.577 127.999 597.681C126.394 603.66 124.79 609.64 123.186 615.618C120.196 626.629 126.905 639.9 138.498 642.525C150.019 645.15 162.269 639.098 165.405 627.213C169.78 610.806 174.155 594.473 178.603 578.068L199.603 499.756C201.207 493.777 202.811 487.797 204.415 481.818C207.478 470.444 200.623 457.974 189.103 454.912C172.696 450.537 156.363 446.162 139.958 441.714C113.854 434.714 87.7498 427.714 61.6458 420.714C55.6666 419.11 49.6874 417.506 43.7084 415.901C32.698 412.912 19.4271 419.62 16.8018 431.213C14.2496 442.734 20.3018 454.984 32.1138 458.12V458.12Z" fill="white"/>
<ellipse cx="335" cy="32.5" rx="32" ry="32.5" fill="white"/>
<ellipse cx="646" cy="208.5" rx="32" ry="32.5" fill="white"/>
<ellipse cx="646" cy="568.5" rx="32" ry="32.5" fill="white"/>
<ellipse cx="335" cy="744.5" rx="32" ry="32.5" fill="white"/>
<ellipse cx="48" cy="561.5" rx="32" ry="32.5" fill="white"/>
<ellipse cx="32" cy="214.5" rx="32" ry="32.5" fill="white"/>
</svg>
