<svg width="639" height="713" viewBox="0 0 639 713" fill="none" xmlns="http://www.w3.org/2000/svg">
<rect width="639" height="713" fill="none"/>
<path d="M341.034 690.507V672.569V624.007V551.965V464.392V368.433V271.236V180.892V104.256V49.3493C341.034 40.6723 341.107 31.9947 341.034 23.3187V22.152C341.034 10.7041 330.971 -0.233327 319.159 0.27734C307.274 0.787753 297.284 9.90241 297.284 22.152V40.0893V88.652V160.693V248.267V344.225V441.423V531.767V608.403V663.309C297.284 671.986 297.212 680.664 297.284 689.34V690.507C297.284 701.955 307.347 712.892 319.159 712.381C331.045 711.798 341.034 702.756 341.034 690.507Z" fill="url(#paint0_linear_0_1)"/>
<path d="M410.087 59.1254C398.056 71.1566 386.098 83.1147 374.066 95.1467C354.962 114.251 335.858 133.355 316.754 152.459L303.629 165.584H334.546C322.515 153.553 310.557 141.594 298.525 129.562C279.421 110.458 260.317 91.3544 241.213 72.2504L228.088 59.1254C219.994 51.0316 205.118 50.4483 197.17 59.1254C189.15 67.8754 188.493 81.4374 197.17 90.0427C209.202 102.074 221.16 114.032 233.192 126.064C252.296 145.168 271.4 164.272 290.504 183.376L303.629 196.501C312.014 204.887 326.159 204.887 334.546 196.501C346.577 184.47 358.535 172.512 370.567 160.48C389.671 141.376 408.775 122.272 427.879 103.168L441.004 90.0427C449.098 81.949 449.682 67.0734 441.004 59.1254C432.327 51.1046 418.764 50.4483 410.087 59.1254V59.1254Z" fill="#B71A1A"/>
<path d="M441.074 622.627L334.615 516.168C326.23 507.783 312.084 507.783 303.698 516.168L197.239 622.627C189.145 630.72 188.562 645.596 197.239 653.544C205.989 661.565 219.551 662.221 228.156 653.544L334.615 547.085H303.698L410.156 653.544C418.25 661.638 433.126 662.221 441.074 653.544C449.095 644.794 449.678 631.232 441.074 622.627Z" fill="#2A8622"/>
<path d="M619.567 504.493C614.39 501.504 609.213 498.514 604.036 495.525C590.036 487.431 575.963 479.337 561.963 471.243C541.182 459.212 520.327 447.254 499.547 435.222C474.244 420.638 448.943 406.055 423.714 391.399C396.006 375.43 368.298 359.389 340.662 343.421C312.588 327.233 284.516 311.046 256.443 294.785C230.339 279.763 204.307 264.67 178.203 249.649C156.11 236.888 133.943 224.127 111.848 211.367C96.0258 202.253 80.2031 193.065 64.3071 183.951C56.7967 179.576 49.2858 175.201 41.7765 170.899C41.4119 170.68 41.1202 170.534 40.8285 170.316C30.9119 164.555 16.4019 167.691 10.9325 178.191C5.39095 188.618 8.16174 202.035 18.8075 208.087C23.9845 211.076 29.1616 214.066 34.3381 217.055C48.3381 225.149 62.4115 233.243 76.4115 241.337C97.1928 253.368 118.047 265.326 138.827 277.358C164.13 291.942 189.431 306.525 214.661 321.181C242.369 337.15 270.077 353.191 297.713 369.159C325.786 385.347 353.858 401.534 381.931 417.795C408.035 432.817 434.068 447.91 460.172 462.931C482.265 475.692 504.431 488.453 526.526 501.213C542.349 510.327 558.171 519.515 574.067 528.629C581.578 533.004 589.089 537.379 596.598 541.681C596.963 541.9 597.254 542.046 597.546 542.264C607.463 548.025 621.973 544.889 627.442 534.389C632.911 524.035 630.14 510.619 619.567 504.493V504.493Z" fill="url(#paint1_linear_0_1)"/>
<path d="M107.26 129.12C111.635 145.527 116.01 161.86 120.458 178.265L141.458 256.577C143.062 262.557 144.667 268.536 146.271 274.515C151.375 265.546 156.479 256.577 161.583 247.608C145.176 251.983 128.843 256.358 112.438 260.806C86.3335 267.806 60.2295 274.806 34.1255 281.806C28.1463 283.41 22.1671 285.014 16.1882 286.618C5.10487 289.608 -2.69714 302.368 0.876197 313.525C4.52206 324.9 15.9695 331.973 27.7829 328.837C44.1895 324.462 60.5229 320.087 76.9282 315.639C103.032 308.639 129.136 301.639 155.24 294.639L173.178 289.827C184.625 286.764 191.48 274.296 188.49 262.92C184.115 246.513 179.74 230.18 175.292 213.775C168.292 187.671 161.292 161.567 154.292 135.463C152.688 129.483 151.083 123.504 149.479 117.525C146.49 106.442 133.73 98.64 122.572 102.213C111.198 105.859 104.124 117.235 107.26 129.12Z" fill="#2A8622"/>
<path d="M610.527 383.973C594.121 388.348 577.787 392.723 561.382 397.171C535.278 404.171 509.174 411.171 483.07 418.171L465.132 422.984C453.685 426.046 446.83 438.514 449.82 449.89C454.195 466.297 458.57 482.63 463.018 499.036C470.018 525.14 477.018 551.244 484.018 577.348C485.622 583.327 487.227 589.306 488.831 595.285C491.82 606.368 504.58 614.17 515.738 610.597C527.112 606.951 534.186 595.504 531.05 583.69C526.675 567.284 522.3 550.95 517.852 534.545L496.852 456.233C495.248 450.254 493.643 444.275 492.039 438.296C486.935 447.265 481.831 456.233 476.727 465.202C493.134 460.828 509.467 456.452 525.872 452.005C551.976 445.005 578.08 438.005 604.184 431.005C610.164 429.4 616.143 427.796 622.122 426.192C633.205 423.202 641.007 410.443 637.434 399.285C633.788 387.91 622.413 380.764 610.527 383.973V383.973Z" fill="#B71A1A"/>
<path d="M48.8806 541.852C54.0577 538.862 59.2348 535.872 64.4113 532.883C78.4113 524.789 92.4847 516.695 106.485 508.601C127.266 496.57 148.121 484.612 168.901 472.58C194.203 457.996 219.505 443.413 244.734 428.757C272.442 412.788 300.15 396.747 327.786 380.779C355.859 364.591 383.931 348.404 412.005 332.143C438.109 317.121 464.141 302.028 490.245 287.007C512.338 274.246 534.505 261.485 556.599 248.725C572.422 239.611 588.245 230.423 604.141 221.309C611.651 216.934 619.234 212.705 626.671 208.257C626.963 208.039 627.328 207.893 627.619 207.674C637.536 201.986 641.838 187.622 635.494 177.778C629.078 167.788 616.172 163.778 605.598 169.903C600.421 172.893 595.244 175.882 590.068 178.872C576.068 186.966 561.994 195.06 547.994 203.153C527.213 215.184 506.358 227.142 485.578 239.174C460.276 253.758 434.974 268.341 409.745 282.997C382.037 298.966 354.329 315.008 326.693 330.976C298.62 347.164 270.548 363.35 242.474 379.612C216.37 394.633 190.338 409.726 164.234 424.748C142.141 437.508 119.974 450.269 97.8795 463.029C82.0568 472.144 66.2342 481.332 50.3382 490.445C42.8278 494.82 35.2448 499.049 27.8075 503.497C27.5158 503.716 27.1513 503.862 26.8596 504.081C16.9429 509.768 12.6409 524.133 18.9846 533.977C25.4013 544.039 38.2353 547.977 48.8806 541.852Z" fill="url(#paint2_linear_0_1)"/>
<path d="M488.834 117.453C484.459 133.86 480.084 150.193 475.636 166.599L454.636 244.911C453.032 250.89 451.428 256.869 449.823 262.848C446.761 274.223 453.615 286.692 465.135 289.755C481.542 294.13 497.875 298.505 514.281 302.953C540.385 309.953 566.489 316.953 592.593 323.953L610.53 328.765C621.541 331.755 634.811 325.046 637.437 313.453C640.062 301.932 634.01 289.682 622.125 286.546C605.718 282.171 589.385 277.796 572.979 273.349C546.875 266.349 520.771 259.349 494.667 252.349C488.688 250.744 482.709 249.14 476.73 247.536C481.834 256.505 486.938 265.473 492.042 274.443C496.417 258.036 500.792 241.703 505.24 225.297C512.24 199.193 519.24 173.089 526.24 146.985C527.844 141.006 529.448 135.027 531.052 129.048C534.042 118.038 527.334 104.767 515.74 102.141C504.22 99.5892 492.043 105.641 488.834 117.453V117.453Z" fill="#2A8622"/>
<path d="M16.1138 426.12C32.5204 430.495 48.8538 434.87 65.2591 439.318C91.3631 446.318 117.467 453.318 143.571 460.318L161.508 465.13C156.404 456.162 151.3 447.193 146.196 438.224C141.822 454.63 137.446 470.964 132.999 487.369C125.999 513.473 118.999 539.577 111.999 565.681C110.394 571.66 108.79 577.64 107.186 583.618C104.196 594.629 110.905 607.9 122.498 610.525C134.019 613.15 146.269 607.098 149.405 595.213C153.78 578.806 158.155 562.473 162.603 546.068L183.603 467.756C185.207 461.777 186.811 455.797 188.415 449.818C191.478 438.444 184.623 425.974 173.103 422.912C156.696 418.537 140.363 414.162 123.958 409.714C97.8538 402.714 71.7498 395.714 45.6458 388.714C39.6666 387.11 33.6874 385.506 27.7084 383.901C16.698 380.912 3.42711 387.62 0.801779 399.213C-1.75035 410.734 4.30178 422.984 16.1138 426.12V426.12Z" fill="#B71A1A"/>
<defs>
<linearGradient id="paint0_linear_0_1" x1="319.159" y1="0.260132" x2="319.159" y2="712.399" gradientUnits="userSpaceOnUse">
<stop offset="0.359375" stop-color="#2A8622"/>
<stop offset="0.614583" stop-color="#B71A1A"/>
</linearGradient>
<linearGradient id="paint1_linear_0_1" x1="118.5" y1="240.5" x2="530.5" y2="472" gradientUnits="userSpaceOnUse">
<stop offset="0.338542" stop-color="#B71A1A"/>
<stop offset="0.619792" stop-color="#2A8622"/>
</linearGradient>
<linearGradient id="paint2_linear_0_1" x1="481" y1="263.5" x2="164" y2="450.5" gradientUnits="userSpaceOnUse">
<stop offset="0.270833" stop-color="#B71A1A"/>
<stop offset="0.677083" stop-color="#2B8623"/>
</linearGradient>
</defs>
</svg>
