<svg width="566" height="702" viewBox="0 0 566 702" fill="transparent" xmlns="http://www.w3.org/2000/svg">
<path d="M565.973 418.883C565.973 575.176 439.276 701.869 282.987 701.869C126.707 701.869 -6.10352e-05 575.172 -6.10352e-05 418.883C-6.10352e-05 262.603 126.697 135.896 282.987 135.896C439.28 135.896 565.973 262.593 565.973 418.883Z" fill="black"/>
<path d="M341.227 169.496H224.003C216.534 169.496 209.815 163.522 209.815 155.308V81.3867C209.815 73.9179 215.789 67.1987 224.003 67.1987H341.232C348.701 67.1987 355.42 73.1727 355.42 81.3867V155.308C355.415 162.777 349.441 169.496 341.227 169.496Z" fill="black"/>
<path d="M282.987 14.188C312.107 14.188 335.252 38.084 335.252 66.4533C335.252 94.828 311.356 118.719 282.987 118.719C254.612 118.719 230.721 94.8227 230.721 66.4533C230.721 38.084 253.867 14.188 282.987 14.188M282.987 0C246.399 0 216.533 29.864 216.533 66.4533C216.533 103.043 246.397 132.907 282.987 132.907C319.576 132.907 349.44 103.043 349.44 66.4533C349.44 29.8693 319.576 0 282.987 0V0Z" fill="black"/>
</svg>
